{"title":"Kung.Fu.Panda.2.2011.TS.AC3.XViD-EP1C","uid":6432307,"size":1498920971,"categoryP":"video","categoryS":"movies","magnet":"?xt=urn:btih:736bd0ad0e1bcfe38369e51355fbd16362e549de&amp;dn=Kung.Fu.Panda.2.2011.TS.AC3.XViD-EP1C&amp;tr=udp%3A%2F%2Ftracker.openbittorrent.com%3A80&amp;tr=udp%3A%2F%2Fopen.demonii.com%3A1337&amp;tr=udp%3A%2F%2Ftracker.coppersurfer.tk%3A6969&amp;tr=udp%3A%2F%2Fexodus.desync.com%3A6969","seeders":0,"leechers":1,"uploader":"sceneline","files":5,"time":1306696872,"description":"- &lt;a href=&quot;\nhttp://www.Speed.Cd&quot; rel=&quot;nofollow&quot; target=&quot;_NEW&quot;&gt;\nhttp://www.Speed.Cd&lt;/a&gt; \n       &lt;a href=&quot;\nhttp://www.Speed.Cd&quot; rel=&quot;nofollow&quot; target=&quot;_NEW&quot;&gt;\nhttp://www.Speed.Cd&lt;/a&gt;       the fast  and The Hottest Private Tracker on the net\n\n(((--Registration will be open on june every weekend--)))\n\nPlease Seed back to make the speed Faster!!!\n\nand don't forget to visit      ...... http://www.Speed.Cd..........\n-[img]http://noob.hu/2011/05/27/kung-fu-panda-2-poster.jpg[img]                                        \n \n\n                  ::::::::::::  EP1C Presents  ::::::::::::\n\n::File:: Kung.Fu.Panda.2.2011.TS.AC3.XViD-EP1C\n\n::Video Source:: That Russian Good Good\n::Audio Source:: Our Own Good Good\n\n::Encoder::::::: iNK\n::Syncer:::::::: iNK\n\n::Language:::::: English\n::IMDB:::::::::: http://www.imdb.com/title/tt1302011/\n\nPo joins forces with a group of new kung-fu masters to \ntake on an old enemy with a deadly new weapon.\n\n::Specs:::::::::\n\nFormat                           : AVI\nFormat/Info                      : Audio Video Interleave\nFile size                        : 1.37 GiB\nDuration                         : 1h 20mn\nOverall bit rate                 : 2 421 Kbps\nWriting application              : VirtualDubMod 1.5.10.2 (build 2540/release)\nWriting library                  : VirtualDubMod build 2540/release\n\nVideo\nID                               : 0\nFormat                           : MPEG-4 Visual\nFormat profile                   : Advanced Simple@L5\nFormat settings, BVOP            : Yes\nFormat settings, QPel            : No\nFormat settings, GMC             : No warppoints\nFormat settings, Matrix          : Default (H.263)\nMuxing mode                      : Packed bitstream\nCodec ID                         : XVID\nCodec ID/Hint                    : XviD\nDuration                         : 1h 20mn\nBit rate                         : 2 220 Kbps\nWidth                            : 672 pixels\nHeight                           : 352 pixels\nDisplay aspect ratio             : 1.909\nFrame rate                       : 25.000 fps\nColor space                      : YUV\nChroma subsampling               : 4:2:0\nBit depth                        : 8 bits\nScan type                        : Progressive\nBits/(Pixel*Frame)               : 0.375\nStream size                      : 1.26 GiB (92%)\nWriting library                  : XviD 58\n\nAudio\nID                               : 1\nFormat                           : AC-3\nFormat/Info                      : Audio Coding 3\nMode extension                   : CM (complete main)\nCodec ID                         : 2000\nDuration                         : 1h 20mn\nBit rate mode                    : Constant\nBit rate                         : 192 Kbps\nChannel(s)                       : 2 channels\nChannel positions                : Front: L R\nSampling rate                    : 48.0 KHz\nBit depth                        : 16 bits\nStream size                      : 111 MiB (8%)\nAlignment                        : Split accross interleaves\nInterleave, duration             : 40 ms (1.00 video frame)\nInterleave, preload duration     : 500 ms\n\n\n::NOTES::::::::: \nPresenting the first TeleSync of Kung Fu Panda 2. Ran a few things through \nto clean it up. This will do until something better. Also, comes with our\nown LiNE, in full stereo. Enjoy. //iNK\n\n:: Got something we might be interested in? contact us: &lt;a class=&quot;__cf_email__&quot; href=&quot;/cdn-cgi/l/email-protection&quot; data-cfemail=&quot;6603160f05260e13150e0b070f0a480b03&quot;&gt;[email&amp;#160;protected]&lt;/a&gt;&lt;script cf-hash='f9e31' type=&quot;text/javascript&quot;&gt;\n/* &lt;![CDATA[ */!function(){try{var t=&quot;currentScript&quot;in document?document.currentScript:function(){for(var t=document.getElementsByTagName(&quot;script&quot;),e=t.length;e--;)if(t[e].getAttribute(&quot;cf-hash&quot;))return t[e]}();if(t&amp;&amp;t.previousSibling){var e,r,n,i,c=t.previousSibling,a=c.getAttribute(&quot;data-cfemail&quot;);if(a){for(e=&quot;&quot;,r=parseInt(a.substr(0,2),16),n=2;a.length-n;n+=2)i=parseInt(a.substr(n,2),16)^r,e+=String.fromCharCode(i);e=document.createTextNode(e),c.parentNode.replaceChild(e,c)}}}catch(u){}}();/* ]]&gt; */&lt;/script&gt; ::\n\n::::::::::::::::::::::::::::::::  RESPECT  :::::::::::::::::::::::::::::::::\nIMAGiNE, Rx, FLAWL3SS, ViSiON, T0XiC, HiVE, bobwhite &amp; All Our Friends!\n\n                 ::::::::::::::::  We Are  ::::::::::::::::  \n               :::::: Surpassing the usual or ordinary ::::::\n::::::::::::::::::    Heroic and impressive in quality    ::::::::::::::::::     \n ::::::::::::::::::::::::::::::::   EP1C   ::::::::::::::::::::::::::::::::\n\n[img]http://noob.hu/2011/05/27/vlcsnap-2011-05-27-12h27m55s135.png[/img]\n[img]http://noob.hu/2011/05/27/vlcsnap-2011-05-27-12h29m49s255.png[/img]\n[img]http://noob.hu/2011/05/27/vlcsnap-2011-05-27-12h29m18s209.png[/img]\n[img]http://noob.hu/2011/05/27/vlcsnap-2011-05-27-12h28m42s103.png[/img]\n[img]http://noob.hu/2011/05/27/vlcsnap-2011-05-27-12h28m53s205.png[/img]","torrent":{"xt":"urn:btih:736bd0ad0e1bcfe38369e51355fbd16362e549de","amp;dn":"Kung.Fu.Panda.2.2011.TS.AC3.XViD-EP1C","amp;tr":["udp%3A%2F%2Ftracker.openbittorrent.com%3A80","udp%3A%2F%2Fopen.demonii.com%3A1337","udp%3A%2F%2Ftracker.coppersurfer.tk%3A6969","udp%3A%2F%2Fexodus.desync.com%3A6969"],"infoHash":"736bd0ad0e1bcfe38369e51355fbd16362e549de","infoHashBuffer":{"type":"Buffer","data":[115,107,208,173,14,27,207,227,131,105,229,19,85,251,209,99,98,229,73,222]},"announce":[],"urlList":[]}}